<mxfile host="65bd71144e">
    <diagram id="qzJ3ZuYmiQqz-6YlRLHa" name="Страница 1">
        <mxGraphModel dx="1146" dy="860" grid="1" gridSize="10" guides="1" tooltips="1" connect="1" arrows="1" fold="1" page="1" pageScale="1" pageWidth="827" pageHeight="1169" math="0" shadow="0">
            <root>
                <mxCell id="0"/>
                <mxCell id="1" parent="0"/>
                <mxCell id="7AIUKhWghx3t-1UBENiu-207" value="CellScene" style="swimlane;fontStyle=1;align=center;verticalAlign=top;childLayout=stackLayout;horizontal=1;startSize=26;horizontalStack=0;resizeParent=1;resizeParentMax=0;resizeLast=0;collapsible=1;marginBottom=0;fontColor=default;fillColor=none;swimlaneFillColor=none;rounded=1;labelBackgroundColor=none;" vertex="1" parent="1">
                    <mxGeometry x="20" y="20" width="180" height="892" as="geometry"/>
                </mxCell>
                <mxCell id="7AIUKhWghx3t-1UBENiu-208" value="- width&#10;" style="text;strokeColor=none;fillColor=none;align=left;verticalAlign=top;spacingLeft=4;spacingRight=4;overflow=hidden;rotatable=0;points=[[0,0.5],[1,0.5]];portConstraint=eastwest;" vertex="1" parent="7AIUKhWghx3t-1UBENiu-207">
                    <mxGeometry y="26" width="180" height="26" as="geometry"/>
                </mxCell>
                <mxCell id="7AIUKhWghx3t-1UBENiu-209" value="- height&#10;" style="text;strokeColor=none;fillColor=none;align=left;verticalAlign=top;spacingLeft=4;spacingRight=4;overflow=hidden;rotatable=0;points=[[0,0.5],[1,0.5]];portConstraint=eastwest;" vertex="1" parent="7AIUKhWghx3t-1UBENiu-207">
                    <mxGeometry y="52" width="180" height="26" as="geometry"/>
                </mxCell>
                <mxCell id="7AIUKhWghx3t-1UBENiu-210" value="- plateModel&#10;" style="text;strokeColor=none;fillColor=none;align=left;verticalAlign=top;spacingLeft=4;spacingRight=4;overflow=hidden;rotatable=0;points=[[0,0.5],[1,0.5]];portConstraint=eastwest;" vertex="1" parent="7AIUKhWghx3t-1UBENiu-207">
                    <mxGeometry y="78" width="180" height="26" as="geometry"/>
                </mxCell>
                <mxCell id="7AIUKhWghx3t-1UBENiu-211" value="- transMatrix&#10;" style="text;strokeColor=none;fillColor=none;align=left;verticalAlign=top;spacingLeft=4;spacingRight=4;overflow=hidden;rotatable=0;points=[[0,0.5],[1,0.5]];portConstraint=eastwest;" vertex="1" parent="7AIUKhWghx3t-1UBENiu-207">
                    <mxGeometry y="104" width="180" height="26" as="geometry"/>
                </mxCell>
                <mxCell id="7AIUKhWghx3t-1UBENiu-212" value="- realModelsNum&#10;" style="text;strokeColor=none;fillColor=none;align=left;verticalAlign=top;spacingLeft=4;spacingRight=4;overflow=hidden;rotatable=0;points=[[0,0.5],[1,0.5]];portConstraint=eastwest;" vertex="1" parent="7AIUKhWghx3t-1UBENiu-207">
                    <mxGeometry y="130" width="180" height="26" as="geometry"/>
                </mxCell>
                <mxCell id="7AIUKhWghx3t-1UBENiu-213" value="- modelsNum&#10;" style="text;strokeColor=none;fillColor=none;align=left;verticalAlign=top;spacingLeft=4;spacingRight=4;overflow=hidden;rotatable=0;points=[[0,0.5],[1,0.5]];portConstraint=eastwest;" vertex="1" parent="7AIUKhWghx3t-1UBENiu-207">
                    <mxGeometry y="156" width="180" height="26" as="geometry"/>
                </mxCell>
                <mxCell id="7AIUKhWghx3t-1UBENiu-214" value="- models" style="text;strokeColor=none;fillColor=none;align=left;verticalAlign=top;spacingLeft=4;spacingRight=4;overflow=hidden;rotatable=0;points=[[0,0.5],[1,0.5]];portConstraint=eastwest;" vertex="1" parent="7AIUKhWghx3t-1UBENiu-207">
                    <mxGeometry y="182" width="180" height="26" as="geometry"/>
                </mxCell>
                <mxCell id="7AIUKhWghx3t-1UBENiu-215" value="- illumNum" style="text;strokeColor=none;fillColor=none;align=left;verticalAlign=top;spacingLeft=4;spacingRight=4;overflow=hidden;rotatable=0;points=[[0,0.5],[1,0.5]];portConstraint=eastwest;" vertex="1" parent="7AIUKhWghx3t-1UBENiu-207">
                    <mxGeometry y="208" width="180" height="26" as="geometry"/>
                </mxCell>
                <mxCell id="7AIUKhWghx3t-1UBENiu-216" value="- illuminants" style="text;strokeColor=none;fillColor=none;align=left;verticalAlign=top;spacingLeft=4;spacingRight=4;overflow=hidden;rotatable=0;points=[[0,0.5],[1,0.5]];portConstraint=eastwest;" vertex="1" parent="7AIUKhWghx3t-1UBENiu-207">
                    <mxGeometry y="234" width="180" height="26" as="geometry"/>
                </mxCell>
                <mxCell id="7AIUKhWghx3t-1UBENiu-217" value="- centerDot" style="text;strokeColor=none;fillColor=none;align=left;verticalAlign=top;spacingLeft=4;spacingRight=4;overflow=hidden;rotatable=0;points=[[0,0.5],[1,0.5]];portConstraint=eastwest;" vertex="1" parent="7AIUKhWghx3t-1UBENiu-207">
                    <mxGeometry y="260" width="180" height="26" as="geometry"/>
                </mxCell>
                <mxCell id="7AIUKhWghx3t-1UBENiu-218" value="- usedCells" style="text;strokeColor=none;fillColor=none;align=left;verticalAlign=top;spacingLeft=4;spacingRight=4;overflow=hidden;rotatable=0;points=[[0,0.5],[1,0.5]];portConstraint=eastwest;" vertex="1" parent="7AIUKhWghx3t-1UBENiu-207">
                    <mxGeometry y="286" width="180" height="26" as="geometry"/>
                </mxCell>
                <mxCell id="7AIUKhWghx3t-1UBENiu-219" value="" style="line;strokeWidth=1;fillColor=none;align=left;verticalAlign=middle;spacingTop=-1;spacingLeft=3;spacingRight=3;rotatable=0;labelPosition=right;points=[];portConstraint=eastwest;" vertex="1" parent="7AIUKhWghx3t-1UBENiu-207">
                    <mxGeometry y="312" width="180" height="8" as="geometry"/>
                </mxCell>
                <mxCell id="7AIUKhWghx3t-1UBENiu-220" value="+ changeSize" style="text;strokeColor=none;fillColor=none;align=left;verticalAlign=top;spacingLeft=4;spacingRight=4;overflow=hidden;rotatable=0;points=[[0,0.5],[1,0.5]];portConstraint=eastwest;" vertex="1" parent="7AIUKhWghx3t-1UBENiu-207">
                    <mxGeometry y="320" width="180" height="26" as="geometry"/>
                </mxCell>
                <mxCell id="7AIUKhWghx3t-1UBENiu-221" value="+ moveUp" style="text;strokeColor=none;fillColor=none;align=left;verticalAlign=top;spacingLeft=4;spacingRight=4;overflow=hidden;rotatable=0;points=[[0,0.5],[1,0.5]];portConstraint=eastwest;" vertex="1" parent="7AIUKhWghx3t-1UBENiu-207">
                    <mxGeometry y="346" width="180" height="26" as="geometry"/>
                </mxCell>
                <mxCell id="7AIUKhWghx3t-1UBENiu-222" value="+ moveDown" style="text;strokeColor=none;fillColor=none;align=left;verticalAlign=top;spacingLeft=4;spacingRight=4;overflow=hidden;rotatable=0;points=[[0,0.5],[1,0.5]];portConstraint=eastwest;" vertex="1" parent="7AIUKhWghx3t-1UBENiu-207">
                    <mxGeometry y="372" width="180" height="26" as="geometry"/>
                </mxCell>
                <mxCell id="7AIUKhWghx3t-1UBENiu-223" value="+ moveLeft" style="text;strokeColor=none;fillColor=none;align=left;verticalAlign=top;spacingLeft=4;spacingRight=4;overflow=hidden;rotatable=0;points=[[0,0.5],[1,0.5]];portConstraint=eastwest;" vertex="1" parent="7AIUKhWghx3t-1UBENiu-207">
                    <mxGeometry y="398" width="180" height="26" as="geometry"/>
                </mxCell>
                <mxCell id="7AIUKhWghx3t-1UBENiu-224" value="+ moveRight" style="text;strokeColor=none;fillColor=none;align=left;verticalAlign=top;spacingLeft=4;spacingRight=4;overflow=hidden;rotatable=0;points=[[0,0.5],[1,0.5]];portConstraint=eastwest;" vertex="1" parent="7AIUKhWghx3t-1UBENiu-207">
                    <mxGeometry y="424" width="180" height="26" as="geometry"/>
                </mxCell>
                <mxCell id="7AIUKhWghx3t-1UBENiu-225" value="+ scale" style="text;strokeColor=none;fillColor=none;align=left;verticalAlign=top;spacingLeft=4;spacingRight=4;overflow=hidden;rotatable=0;points=[[0,0.5],[1,0.5]];portConstraint=eastwest;" vertex="1" parent="7AIUKhWghx3t-1UBENiu-207">
                    <mxGeometry y="450" width="180" height="26" as="geometry"/>
                </mxCell>
                <mxCell id="7AIUKhWghx3t-1UBENiu-226" value="+ rotateX" style="text;strokeColor=none;fillColor=none;align=left;verticalAlign=top;spacingLeft=4;spacingRight=4;overflow=hidden;rotatable=0;points=[[0,0.5],[1,0.5]];portConstraint=eastwest;" vertex="1" parent="7AIUKhWghx3t-1UBENiu-207">
                    <mxGeometry y="476" width="180" height="26" as="geometry"/>
                </mxCell>
                <mxCell id="7AIUKhWghx3t-1UBENiu-227" value="+ rotateY" style="text;strokeColor=none;fillColor=none;align=left;verticalAlign=top;spacingLeft=4;spacingRight=4;overflow=hidden;rotatable=0;points=[[0,0.5],[1,0.5]];portConstraint=eastwest;" vertex="1" parent="7AIUKhWghx3t-1UBENiu-207">
                    <mxGeometry y="502" width="180" height="26" as="geometry"/>
                </mxCell>
                <mxCell id="7AIUKhWghx3t-1UBENiu-228" value="+ rotateZ" style="text;strokeColor=none;fillColor=none;align=left;verticalAlign=top;spacingLeft=4;spacingRight=4;overflow=hidden;rotatable=0;points=[[0,0.5],[1,0.5]];portConstraint=eastwest;" vertex="1" parent="7AIUKhWghx3t-1UBENiu-207">
                    <mxGeometry y="528" width="180" height="26" as="geometry"/>
                </mxCell>
                <mxCell id="7AIUKhWghx3t-1UBENiu-229" value="+ toCenter" style="text;strokeColor=none;fillColor=none;align=left;verticalAlign=top;spacingLeft=4;spacingRight=4;overflow=hidden;rotatable=0;points=[[0,0.5],[1,0.5]];portConstraint=eastwest;" vertex="1" parent="7AIUKhWghx3t-1UBENiu-207">
                    <mxGeometry y="554" width="180" height="26" as="geometry"/>
                </mxCell>
                <mxCell id="7AIUKhWghx3t-1UBENiu-230" value="+ addModel" style="text;strokeColor=none;fillColor=none;align=left;verticalAlign=top;spacingLeft=4;spacingRight=4;overflow=hidden;rotatable=0;points=[[0,0.5],[1,0.5]];portConstraint=eastwest;" vertex="1" parent="7AIUKhWghx3t-1UBENiu-207">
                    <mxGeometry y="580" width="180" height="26" as="geometry"/>
                </mxCell>
                <mxCell id="7AIUKhWghx3t-1UBENiu-231" value="+ deleteModel" style="text;strokeColor=none;fillColor=none;align=left;verticalAlign=top;spacingLeft=4;spacingRight=4;overflow=hidden;rotatable=0;points=[[0,0.5],[1,0.5]];portConstraint=eastwest;" vertex="1" parent="7AIUKhWghx3t-1UBENiu-207">
                    <mxGeometry y="606" width="180" height="26" as="geometry"/>
                </mxCell>
                <mxCell id="7AIUKhWghx3t-1UBENiu-232" value="+ addIlluminant" style="text;strokeColor=none;fillColor=none;align=left;verticalAlign=top;spacingLeft=4;spacingRight=4;overflow=hidden;rotatable=0;points=[[0,0.5],[1,0.5]];portConstraint=eastwest;" vertex="1" parent="7AIUKhWghx3t-1UBENiu-207">
                    <mxGeometry y="632" width="180" height="26" as="geometry"/>
                </mxCell>
                <mxCell id="7AIUKhWghx3t-1UBENiu-233" value="+ deleteIlluminant" style="text;strokeColor=none;fillColor=none;align=left;verticalAlign=top;spacingLeft=4;spacingRight=4;overflow=hidden;rotatable=0;points=[[0,0.5],[1,0.5]];portConstraint=eastwest;" vertex="1" parent="7AIUKhWghx3t-1UBENiu-207">
                    <mxGeometry y="658" width="180" height="26" as="geometry"/>
                </mxCell>
                <mxCell id="7AIUKhWghx3t-1UBENiu-234" value="+ multToTrans" style="text;strokeColor=none;fillColor=none;align=left;verticalAlign=top;spacingLeft=4;spacingRight=4;overflow=hidden;rotatable=0;points=[[0,0.5],[1,0.5]];portConstraint=eastwest;" vertex="1" parent="7AIUKhWghx3t-1UBENiu-207">
                    <mxGeometry y="684" width="180" height="26" as="geometry"/>
                </mxCell>
                <mxCell id="7AIUKhWghx3t-1UBENiu-235" value="+ initUsedCells" style="text;strokeColor=none;fillColor=none;align=left;verticalAlign=top;spacingLeft=4;spacingRight=4;overflow=hidden;rotatable=0;points=[[0,0.5],[1,0.5]];portConstraint=eastwest;" vertex="1" parent="7AIUKhWghx3t-1UBENiu-207">
                    <mxGeometry y="710" width="180" height="26" as="geometry"/>
                </mxCell>
                <mxCell id="7AIUKhWghx3t-1UBENiu-236" value="+ markUsedCells" style="text;strokeColor=none;fillColor=none;align=left;verticalAlign=top;spacingLeft=4;spacingRight=4;overflow=hidden;rotatable=0;points=[[0,0.5],[1,0.5]];portConstraint=eastwest;" vertex="1" parent="7AIUKhWghx3t-1UBENiu-207">
                    <mxGeometry y="736" width="180" height="26" as="geometry"/>
                </mxCell>
                <mxCell id="7AIUKhWghx3t-1UBENiu-237" value="+ clearUsedCells" style="text;strokeColor=none;fillColor=none;align=left;verticalAlign=top;spacingLeft=4;spacingRight=4;overflow=hidden;rotatable=0;points=[[0,0.5],[1,0.5]];portConstraint=eastwest;" vertex="1" parent="7AIUKhWghx3t-1UBENiu-207">
                    <mxGeometry y="762" width="180" height="26" as="geometry"/>
                </mxCell>
                <mxCell id="7AIUKhWghx3t-1UBENiu-238" value="+ printUsedCells" style="text;strokeColor=none;fillColor=none;align=left;verticalAlign=top;spacingLeft=4;spacingRight=4;overflow=hidden;rotatable=0;points=[[0,0.5],[1,0.5]];portConstraint=eastwest;" vertex="1" parent="7AIUKhWghx3t-1UBENiu-207">
                    <mxGeometry y="788" width="180" height="26" as="geometry"/>
                </mxCell>
                <mxCell id="7AIUKhWghx3t-1UBENiu-239" value="- markCellsNearHouse" style="text;strokeColor=none;fillColor=none;align=left;verticalAlign=top;spacingLeft=4;spacingRight=4;overflow=hidden;rotatable=0;points=[[0,0.5],[1,0.5]];portConstraint=eastwest;" vertex="1" parent="7AIUKhWghx3t-1UBENiu-207">
                    <mxGeometry y="814" width="180" height="26" as="geometry"/>
                </mxCell>
                <mxCell id="7AIUKhWghx3t-1UBENiu-240" value="- clearCellsNearHouse" style="text;strokeColor=none;fillColor=none;align=left;verticalAlign=top;spacingLeft=4;spacingRight=4;overflow=hidden;rotatable=0;points=[[0,0.5],[1,0.5]];portConstraint=eastwest;" vertex="1" parent="7AIUKhWghx3t-1UBENiu-207">
                    <mxGeometry y="840" width="180" height="26" as="geometry"/>
                </mxCell>
                <mxCell id="7AIUKhWghx3t-1UBENiu-241" value="- addQuad" style="text;strokeColor=none;fillColor=none;align=left;verticalAlign=top;spacingLeft=4;spacingRight=4;overflow=hidden;rotatable=0;points=[[0,0.5],[1,0.5]];portConstraint=eastwest;" vertex="1" parent="7AIUKhWghx3t-1UBENiu-207">
                    <mxGeometry y="866" width="180" height="26" as="geometry"/>
                </mxCell>
                <mxCell id="7AIUKhWghx3t-1UBENiu-242" value="UsageFacade" style="swimlane;fontStyle=1;align=center;verticalAlign=top;childLayout=stackLayout;horizontal=1;startSize=26;horizontalStack=0;resizeParent=1;resizeParentMax=0;resizeLast=0;collapsible=1;marginBottom=0;fontColor=default;fillColor=none;swimlaneFillColor=none;rounded=1;labelBackgroundColor=none;" vertex="1" parent="1">
                    <mxGeometry x="230" y="20" width="190" height="580" as="geometry"/>
                </mxCell>
                <mxCell id="7AIUKhWghx3t-1UBENiu-243" value="- scene" style="text;strokeColor=none;fillColor=none;align=left;verticalAlign=top;spacingLeft=4;spacingRight=4;overflow=hidden;rotatable=0;points=[[0,0.5],[1,0.5]];portConstraint=eastwest;" vertex="1" parent="7AIUKhWghx3t-1UBENiu-242">
                    <mxGeometry y="26" width="190" height="26" as="geometry"/>
                </mxCell>
                <mxCell id="7AIUKhWghx3t-1UBENiu-244" value="- drawer" style="text;strokeColor=none;fillColor=none;align=left;verticalAlign=top;spacingLeft=4;spacingRight=4;overflow=hidden;rotatable=0;points=[[0,0.5],[1,0.5]];portConstraint=eastwest;" vertex="1" parent="7AIUKhWghx3t-1UBENiu-242">
                    <mxGeometry y="52" width="190" height="26" as="geometry"/>
                </mxCell>
                <mxCell id="7AIUKhWghx3t-1UBENiu-245" value="" style="line;strokeWidth=1;fillColor=none;align=left;verticalAlign=middle;spacingTop=-1;spacingLeft=3;spacingRight=3;rotatable=0;labelPosition=right;points=[];portConstraint=eastwest;" vertex="1" parent="7AIUKhWghx3t-1UBENiu-242">
                    <mxGeometry y="78" width="190" height="8" as="geometry"/>
                </mxCell>
                <mxCell id="7AIUKhWghx3t-1UBENiu-246" value="+ changeCellScene" style="text;strokeColor=none;fillColor=none;align=left;verticalAlign=top;spacingLeft=4;spacingRight=4;overflow=hidden;rotatable=0;points=[[0,0.5],[1,0.5]];portConstraint=eastwest;" vertex="1" parent="7AIUKhWghx3t-1UBENiu-242">
                    <mxGeometry y="86" width="190" height="26" as="geometry"/>
                </mxCell>
                <mxCell id="7AIUKhWghx3t-1UBENiu-247" value="+ isSceneSet" style="text;strokeColor=none;fillColor=none;align=left;verticalAlign=top;spacingLeft=4;spacingRight=4;overflow=hidden;rotatable=0;points=[[0,0.5],[1,0.5]];portConstraint=eastwest;" vertex="1" parent="7AIUKhWghx3t-1UBENiu-242">
                    <mxGeometry y="112" width="190" height="26" as="geometry"/>
                </mxCell>
                <mxCell id="7AIUKhWghx3t-1UBENiu-248" value="+ addHouse" style="text;strokeColor=none;fillColor=none;align=left;verticalAlign=top;spacingLeft=4;spacingRight=4;overflow=hidden;rotatable=0;points=[[0,0.5],[1,0.5]];portConstraint=eastwest;" vertex="1" parent="7AIUKhWghx3t-1UBENiu-242">
                    <mxGeometry y="138" width="190" height="26" as="geometry"/>
                </mxCell>
                <mxCell id="7AIUKhWghx3t-1UBENiu-249" value="+ addTree" style="text;strokeColor=none;fillColor=none;align=left;verticalAlign=top;spacingLeft=4;spacingRight=4;overflow=hidden;rotatable=0;points=[[0,0.5],[1,0.5]];portConstraint=eastwest;" vertex="1" parent="7AIUKhWghx3t-1UBENiu-242">
                    <mxGeometry y="164" width="190" height="26" as="geometry"/>
                </mxCell>
                <mxCell id="7AIUKhWghx3t-1UBENiu-250" value="+ addRoad" style="text;strokeColor=none;fillColor=none;align=left;verticalAlign=top;spacingLeft=4;spacingRight=4;overflow=hidden;rotatable=0;points=[[0,0.5],[1,0.5]];portConstraint=eastwest;" vertex="1" parent="7AIUKhWghx3t-1UBENiu-242">
                    <mxGeometry y="190" width="190" height="26" as="geometry"/>
                </mxCell>
                <mxCell id="7AIUKhWghx3t-1UBENiu-251" value="+ addCar" style="text;strokeColor=none;fillColor=none;align=left;verticalAlign=top;spacingLeft=4;spacingRight=4;overflow=hidden;rotatable=0;points=[[0,0.5],[1,0.5]];portConstraint=eastwest;" vertex="1" parent="7AIUKhWghx3t-1UBENiu-242">
                    <mxGeometry y="216" width="190" height="26" as="geometry"/>
                </mxCell>
                <mxCell id="7AIUKhWghx3t-1UBENiu-252" value="+ addIlluminant" style="text;strokeColor=none;fillColor=none;align=left;verticalAlign=top;spacingLeft=4;spacingRight=4;overflow=hidden;rotatable=0;points=[[0,0.5],[1,0.5]];portConstraint=eastwest;" vertex="1" parent="7AIUKhWghx3t-1UBENiu-242">
                    <mxGeometry y="242" width="190" height="26" as="geometry"/>
                </mxCell>
                <mxCell id="7AIUKhWghx3t-1UBENiu-253" value="+ moveUpScene" style="text;strokeColor=none;fillColor=none;align=left;verticalAlign=top;spacingLeft=4;spacingRight=4;overflow=hidden;rotatable=0;points=[[0,0.5],[1,0.5]];portConstraint=eastwest;" vertex="1" parent="7AIUKhWghx3t-1UBENiu-242">
                    <mxGeometry y="268" width="190" height="26" as="geometry"/>
                </mxCell>
                <mxCell id="7AIUKhWghx3t-1UBENiu-254" value="+ moveDownScene" style="text;strokeColor=none;fillColor=none;align=left;verticalAlign=top;spacingLeft=4;spacingRight=4;overflow=hidden;rotatable=0;points=[[0,0.5],[1,0.5]];portConstraint=eastwest;" vertex="1" parent="7AIUKhWghx3t-1UBENiu-242">
                    <mxGeometry y="294" width="190" height="26" as="geometry"/>
                </mxCell>
                <mxCell id="7AIUKhWghx3t-1UBENiu-255" value="+ moveLeftScene" style="text;strokeColor=none;fillColor=none;align=left;verticalAlign=top;spacingLeft=4;spacingRight=4;overflow=hidden;rotatable=0;points=[[0,0.5],[1,0.5]];portConstraint=eastwest;" vertex="1" parent="7AIUKhWghx3t-1UBENiu-242">
                    <mxGeometry y="320" width="190" height="26" as="geometry"/>
                </mxCell>
                <mxCell id="7AIUKhWghx3t-1UBENiu-256" value="+ moveRightScene" style="text;strokeColor=none;fillColor=none;align=left;verticalAlign=top;spacingLeft=4;spacingRight=4;overflow=hidden;rotatable=0;points=[[0,0.5],[1,0.5]];portConstraint=eastwest;" vertex="1" parent="7AIUKhWghx3t-1UBENiu-242">
                    <mxGeometry y="346" width="190" height="26" as="geometry"/>
                </mxCell>
                <mxCell id="7AIUKhWghx3t-1UBENiu-257" value="+ scaleScene" style="text;strokeColor=none;fillColor=none;align=left;verticalAlign=top;spacingLeft=4;spacingRight=4;overflow=hidden;rotatable=0;points=[[0,0.5],[1,0.5]];portConstraint=eastwest;" vertex="1" parent="7AIUKhWghx3t-1UBENiu-242">
                    <mxGeometry y="372" width="190" height="26" as="geometry"/>
                </mxCell>
                <mxCell id="7AIUKhWghx3t-1UBENiu-258" value="+ rotateXScene" style="text;strokeColor=none;fillColor=none;align=left;verticalAlign=top;spacingLeft=4;spacingRight=4;overflow=hidden;rotatable=0;points=[[0,0.5],[1,0.5]];portConstraint=eastwest;" vertex="1" parent="7AIUKhWghx3t-1UBENiu-242">
                    <mxGeometry y="398" width="190" height="26" as="geometry"/>
                </mxCell>
                <mxCell id="7AIUKhWghx3t-1UBENiu-259" value="+ rotateYScene" style="text;strokeColor=none;fillColor=none;align=left;verticalAlign=top;spacingLeft=4;spacingRight=4;overflow=hidden;rotatable=0;points=[[0,0.5],[1,0.5]];portConstraint=eastwest;" vertex="1" parent="7AIUKhWghx3t-1UBENiu-242">
                    <mxGeometry y="424" width="190" height="26" as="geometry"/>
                </mxCell>
                <mxCell id="7AIUKhWghx3t-1UBENiu-260" value="+ rotateZScene" style="text;strokeColor=none;fillColor=none;align=left;verticalAlign=top;spacingLeft=4;spacingRight=4;overflow=hidden;rotatable=0;points=[[0,0.5],[1,0.5]];portConstraint=eastwest;" vertex="1" parent="7AIUKhWghx3t-1UBENiu-242">
                    <mxGeometry y="450" width="190" height="26" as="geometry"/>
                </mxCell>
                <mxCell id="7AIUKhWghx3t-1UBENiu-261" value="+ toCenter" style="text;strokeColor=none;fillColor=none;align=left;verticalAlign=top;spacingLeft=4;spacingRight=4;overflow=hidden;rotatable=0;points=[[0,0.5],[1,0.5]];portConstraint=eastwest;" vertex="1" parent="7AIUKhWghx3t-1UBENiu-242">
                    <mxGeometry y="476" width="190" height="26" as="geometry"/>
                </mxCell>
                <mxCell id="7AIUKhWghx3t-1UBENiu-262" value="- addQuad" style="text;strokeColor=none;fillColor=none;align=left;verticalAlign=top;spacingLeft=4;spacingRight=4;overflow=hidden;rotatable=0;points=[[0,0.5],[1,0.5]];portConstraint=eastwest;" vertex="1" parent="7AIUKhWghx3t-1UBENiu-242">
                    <mxGeometry y="502" width="190" height="26" as="geometry"/>
                </mxCell>
                <mxCell id="7AIUKhWghx3t-1UBENiu-263" value="- addTriangle" style="text;strokeColor=none;fillColor=none;align=left;verticalAlign=top;spacingLeft=4;spacingRight=4;overflow=hidden;rotatable=0;points=[[0,0.5],[1,0.5]];portConstraint=eastwest;" vertex="1" parent="7AIUKhWghx3t-1UBENiu-242">
                    <mxGeometry y="528" width="190" height="26" as="geometry"/>
                </mxCell>
                <mxCell id="7AIUKhWghx3t-1UBENiu-264" value="- searchRoadsNearby" style="text;strokeColor=none;fillColor=none;align=left;verticalAlign=top;spacingLeft=4;spacingRight=4;overflow=hidden;rotatable=0;points=[[0,0.5],[1,0.5]];portConstraint=eastwest;" vertex="1" parent="7AIUKhWghx3t-1UBENiu-242">
                    <mxGeometry y="554" width="190" height="26" as="geometry"/>
                </mxCell>
                <mxCell id="7AIUKhWghx3t-1UBENiu-265" value="Drawer" style="swimlane;fontStyle=1;align=center;verticalAlign=top;childLayout=stackLayout;horizontal=1;startSize=26;horizontalStack=0;resizeParent=1;resizeParentMax=0;resizeLast=0;collapsible=1;marginBottom=0;fontColor=default;fillColor=none;swimlaneFillColor=none;rounded=1;labelBackgroundColor=none;" vertex="1" parent="1">
                    <mxGeometry x="230" y="618" width="190" height="294" as="geometry"/>
                </mxCell>
                <mxCell id="7AIUKhWghx3t-1UBENiu-266" value="- depthBuffer" style="text;strokeColor=none;fillColor=none;align=left;verticalAlign=top;spacingLeft=4;spacingRight=4;overflow=hidden;rotatable=0;points=[[0,0.5],[1,0.5]];portConstraint=eastwest;" vertex="1" parent="7AIUKhWghx3t-1UBENiu-265">
                    <mxGeometry y="26" width="190" height="26" as="geometry"/>
                </mxCell>
                <mxCell id="7AIUKhWghx3t-1UBENiu-267" value="- frameBuffer" style="text;strokeColor=none;fillColor=none;align=left;verticalAlign=top;spacingLeft=4;spacingRight=4;overflow=hidden;rotatable=0;points=[[0,0.5],[1,0.5]];portConstraint=eastwest;" vertex="1" parent="7AIUKhWghx3t-1UBENiu-265">
                    <mxGeometry y="52" width="190" height="26" as="geometry"/>
                </mxCell>
                <mxCell id="7AIUKhWghx3t-1UBENiu-268" value="" style="line;strokeWidth=1;fillColor=none;align=left;verticalAlign=middle;spacingTop=-1;spacingLeft=3;spacingRight=3;rotatable=0;labelPosition=right;points=[];portConstraint=eastwest;" vertex="1" parent="7AIUKhWghx3t-1UBENiu-265">
                    <mxGeometry y="78" width="190" height="8" as="geometry"/>
                </mxCell>
                <mxCell id="7AIUKhWghx3t-1UBENiu-269" value="+ zBufferAlg" style="text;strokeColor=none;fillColor=none;align=left;verticalAlign=top;spacingLeft=4;spacingRight=4;overflow=hidden;rotatable=0;points=[[0,0.5],[1,0.5]];portConstraint=eastwest;" vertex="1" parent="7AIUKhWghx3t-1UBENiu-265">
                    <mxGeometry y="86" width="190" height="26" as="geometry"/>
                </mxCell>
                <mxCell id="7AIUKhWghx3t-1UBENiu-270" value="+ zBufForModel" style="text;strokeColor=none;fillColor=none;align=left;verticalAlign=top;spacingLeft=4;spacingRight=4;overflow=hidden;rotatable=0;points=[[0,0.5],[1,0.5]];portConstraint=eastwest;" vertex="1" parent="7AIUKhWghx3t-1UBENiu-265">
                    <mxGeometry y="112" width="190" height="26" as="geometry"/>
                </mxCell>
                <mxCell id="7AIUKhWghx3t-1UBENiu-271" value="+ shadowMapForModel" style="text;strokeColor=none;fillColor=none;align=left;verticalAlign=top;spacingLeft=4;spacingRight=4;overflow=hidden;rotatable=0;points=[[0,0.5],[1,0.5]];portConstraint=eastwest;" vertex="1" parent="7AIUKhWghx3t-1UBENiu-265">
                    <mxGeometry y="138" width="190" height="26" as="geometry"/>
                </mxCell>
                <mxCell id="7AIUKhWghx3t-1UBENiu-272" value="+ drawScene" style="text;strokeColor=none;fillColor=none;align=left;verticalAlign=top;spacingLeft=4;spacingRight=4;overflow=hidden;rotatable=0;points=[[0,0.5],[1,0.5]];portConstraint=eastwest;" vertex="1" parent="7AIUKhWghx3t-1UBENiu-265">
                    <mxGeometry y="164" width="190" height="26" as="geometry"/>
                </mxCell>
                <mxCell id="7AIUKhWghx3t-1UBENiu-273" value="- interpolateColIntoShadowMap" style="text;strokeColor=none;fillColor=none;align=left;verticalAlign=top;spacingLeft=4;spacingRight=4;overflow=hidden;rotatable=0;points=[[0,0.5],[1,0.5]];portConstraint=eastwest;" vertex="1" parent="7AIUKhWghx3t-1UBENiu-265">
                    <mxGeometry y="190" width="190" height="26" as="geometry"/>
                </mxCell>
                <mxCell id="7AIUKhWghx3t-1UBENiu-274" value="- interpolateRowIntoShadowMap" style="text;strokeColor=none;fillColor=none;align=left;verticalAlign=top;spacingLeft=4;spacingRight=4;overflow=hidden;rotatable=0;points=[[0,0.5],[1,0.5]];portConstraint=eastwest;" vertex="1" parent="7AIUKhWghx3t-1UBENiu-265">
                    <mxGeometry y="216" width="190" height="26" as="geometry"/>
                </mxCell>
                <mxCell id="7AIUKhWghx3t-1UBENiu-275" value="- specBorderPut" style="text;strokeColor=none;fillColor=none;align=left;verticalAlign=top;spacingLeft=4;spacingRight=4;overflow=hidden;rotatable=0;points=[[0,0.5],[1,0.5]];portConstraint=eastwest;" vertex="1" parent="7AIUKhWghx3t-1UBENiu-265">
                    <mxGeometry y="242" width="190" height="26" as="geometry"/>
                </mxCell>
                <mxCell id="7AIUKhWghx3t-1UBENiu-276" value="- DDABordersForPolygon" style="text;strokeColor=none;fillColor=none;align=left;verticalAlign=top;spacingLeft=4;spacingRight=4;overflow=hidden;rotatable=0;points=[[0,0.5],[1,0.5]];portConstraint=eastwest;" vertex="1" parent="7AIUKhWghx3t-1UBENiu-265">
                    <mxGeometry y="268" width="190" height="26" as="geometry"/>
                </mxCell>
                <mxCell id="7AIUKhWghx3t-1UBENiu-277" value="MainWindow" style="swimlane;fontStyle=1;align=center;verticalAlign=top;childLayout=stackLayout;horizontal=1;startSize=26;horizontalStack=0;resizeParent=1;resizeParentMax=0;resizeLast=0;collapsible=1;marginBottom=0;fontColor=default;fillColor=none;swimlaneFillColor=none;rounded=1;labelBackgroundColor=none;" vertex="1" parent="1">
                    <mxGeometry x="630" y="20" width="180" height="86" as="geometry"/>
                </mxCell>
                <mxCell id="7AIUKhWghx3t-1UBENiu-278" value="- ui" style="text;strokeColor=none;fillColor=none;align=left;verticalAlign=top;spacingLeft=4;spacingRight=4;overflow=hidden;rotatable=0;points=[[0,0.5],[1,0.5]];portConstraint=eastwest;" vertex="1" parent="7AIUKhWghx3t-1UBENiu-277">
                    <mxGeometry y="26" width="180" height="26" as="geometry"/>
                </mxCell>
                <mxCell id="7AIUKhWghx3t-1UBENiu-279" value="- facade" style="text;strokeColor=none;fillColor=none;align=left;verticalAlign=top;spacingLeft=4;spacingRight=4;overflow=hidden;rotatable=0;points=[[0,0.5],[1,0.5]];portConstraint=eastwest;" vertex="1" parent="7AIUKhWghx3t-1UBENiu-277">
                    <mxGeometry y="52" width="180" height="26" as="geometry"/>
                </mxCell>
                <mxCell id="7AIUKhWghx3t-1UBENiu-280" value="" style="line;strokeWidth=1;fillColor=none;align=left;verticalAlign=middle;spacingTop=-1;spacingLeft=3;spacingRight=3;rotatable=0;labelPosition=right;points=[];portConstraint=eastwest;" vertex="1" parent="7AIUKhWghx3t-1UBENiu-277">
                    <mxGeometry y="78" width="180" height="8" as="geometry"/>
                </mxCell>
                <mxCell id="7AIUKhWghx3t-1UBENiu-281" value="SizeChooser" style="swimlane;fontStyle=1;align=center;verticalAlign=top;childLayout=stackLayout;horizontal=1;startSize=26;horizontalStack=0;resizeParent=1;resizeParentMax=0;resizeLast=0;collapsible=1;marginBottom=0;fontColor=default;fillColor=none;swimlaneFillColor=none;rounded=1;labelBackgroundColor=none;" vertex="1" parent="1">
                    <mxGeometry x="630" y="130" width="180" height="86" as="geometry"/>
                </mxCell>
                <mxCell id="7AIUKhWghx3t-1UBENiu-282" value="- width" style="text;strokeColor=none;fillColor=none;align=left;verticalAlign=top;spacingLeft=4;spacingRight=4;overflow=hidden;rotatable=0;points=[[0,0.5],[1,0.5]];portConstraint=eastwest;" vertex="1" parent="7AIUKhWghx3t-1UBENiu-281">
                    <mxGeometry y="26" width="180" height="26" as="geometry"/>
                </mxCell>
                <mxCell id="7AIUKhWghx3t-1UBENiu-283" value="- height" style="text;strokeColor=none;fillColor=none;align=left;verticalAlign=top;spacingLeft=4;spacingRight=4;overflow=hidden;rotatable=0;points=[[0,0.5],[1,0.5]];portConstraint=eastwest;" vertex="1" parent="7AIUKhWghx3t-1UBENiu-281">
                    <mxGeometry y="52" width="180" height="26" as="geometry"/>
                </mxCell>
                <mxCell id="7AIUKhWghx3t-1UBENiu-284" value="" style="line;strokeWidth=1;fillColor=none;align=left;verticalAlign=middle;spacingTop=-1;spacingLeft=3;spacingRight=3;rotatable=0;labelPosition=right;points=[];portConstraint=eastwest;" vertex="1" parent="7AIUKhWghx3t-1UBENiu-281">
                    <mxGeometry y="78" width="180" height="8" as="geometry"/>
                </mxCell>
                <mxCell id="7AIUKhWghx3t-1UBENiu-285" value="PlaceHouseChooser" style="swimlane;fontStyle=1;align=center;verticalAlign=top;childLayout=stackLayout;horizontal=1;startSize=26;horizontalStack=0;resizeParent=1;resizeParentMax=0;resizeLast=0;collapsible=1;marginBottom=0;fontColor=default;fillColor=none;swimlaneFillColor=none;rounded=1;labelBackgroundColor=none;" vertex="1" parent="1">
                    <mxGeometry x="440" y="20" width="170" height="190" as="geometry"/>
                </mxCell>
                <mxCell id="7AIUKhWghx3t-1UBENiu-286" value="- xCell" style="text;strokeColor=none;fillColor=none;align=left;verticalAlign=top;spacingLeft=4;spacingRight=4;overflow=hidden;rotatable=0;points=[[0,0.5],[1,0.5]];portConstraint=eastwest;" vertex="1" parent="7AIUKhWghx3t-1UBENiu-285">
                    <mxGeometry y="26" width="170" height="26" as="geometry"/>
                </mxCell>
                <mxCell id="7AIUKhWghx3t-1UBENiu-287" value="- yCell" style="text;strokeColor=none;fillColor=none;align=left;verticalAlign=top;spacingLeft=4;spacingRight=4;overflow=hidden;rotatable=0;points=[[0,0.5],[1,0.5]];portConstraint=eastwest;" vertex="1" parent="7AIUKhWghx3t-1UBENiu-285">
                    <mxGeometry y="52" width="170" height="26" as="geometry"/>
                </mxCell>
                <mxCell id="7AIUKhWghx3t-1UBENiu-288" value="- modelLength" style="text;strokeColor=none;fillColor=none;align=left;verticalAlign=top;spacingLeft=4;spacingRight=4;overflow=hidden;rotatable=0;points=[[0,0.5],[1,0.5]];portConstraint=eastwest;" vertex="1" parent="7AIUKhWghx3t-1UBENiu-285">
                    <mxGeometry y="78" width="170" height="26" as="geometry"/>
                </mxCell>
                <mxCell id="7AIUKhWghx3t-1UBENiu-289" value="- modelHeight" style="text;strokeColor=none;fillColor=none;align=left;verticalAlign=top;spacingLeft=4;spacingRight=4;overflow=hidden;rotatable=0;points=[[0,0.5],[1,0.5]];portConstraint=eastwest;" vertex="1" parent="7AIUKhWghx3t-1UBENiu-285">
                    <mxGeometry y="104" width="170" height="26" as="geometry"/>
                </mxCell>
                <mxCell id="7AIUKhWghx3t-1UBENiu-290" value="- houseHeight" style="text;strokeColor=none;fillColor=none;align=left;verticalAlign=top;spacingLeft=4;spacingRight=4;overflow=hidden;rotatable=0;points=[[0,0.5],[1,0.5]];portConstraint=eastwest;" vertex="1" parent="7AIUKhWghx3t-1UBENiu-285">
                    <mxGeometry y="130" width="170" height="26" as="geometry"/>
                </mxCell>
                <mxCell id="7AIUKhWghx3t-1UBENiu-291" value="- status" style="text;strokeColor=none;fillColor=none;align=left;verticalAlign=top;spacingLeft=4;spacingRight=4;overflow=hidden;rotatable=0;points=[[0,0.5],[1,0.5]];portConstraint=eastwest;" vertex="1" parent="7AIUKhWghx3t-1UBENiu-285">
                    <mxGeometry y="156" width="170" height="26" as="geometry"/>
                </mxCell>
                <mxCell id="7AIUKhWghx3t-1UBENiu-292" value="" style="line;strokeWidth=1;fillColor=none;align=left;verticalAlign=middle;spacingTop=-1;spacingLeft=3;spacingRight=3;rotatable=0;labelPosition=right;points=[];portConstraint=eastwest;" vertex="1" parent="7AIUKhWghx3t-1UBENiu-285">
                    <mxGeometry y="182" width="170" height="8" as="geometry"/>
                </mxCell>
                <mxCell id="7AIUKhWghx3t-1UBENiu-293" value="PlaceTreeChooser" style="swimlane;fontStyle=1;align=center;verticalAlign=top;childLayout=stackLayout;horizontal=1;startSize=26;horizontalStack=0;resizeParent=1;resizeParentMax=0;resizeLast=0;collapsible=1;marginBottom=0;fontColor=default;fillColor=none;swimlaneFillColor=none;rounded=1;labelBackgroundColor=none;" vertex="1" parent="1">
                    <mxGeometry x="440" y="240" width="170" height="164" as="geometry"/>
                </mxCell>
                <mxCell id="7AIUKhWghx3t-1UBENiu-294" value="- xCell" style="text;strokeColor=none;fillColor=none;align=left;verticalAlign=top;spacingLeft=4;spacingRight=4;overflow=hidden;rotatable=0;points=[[0,0.5],[1,0.5]];portConstraint=eastwest;" vertex="1" parent="7AIUKhWghx3t-1UBENiu-293">
                    <mxGeometry y="26" width="170" height="26" as="geometry"/>
                </mxCell>
                <mxCell id="7AIUKhWghx3t-1UBENiu-295" value="- yCell" style="text;strokeColor=none;fillColor=none;align=left;verticalAlign=top;spacingLeft=4;spacingRight=4;overflow=hidden;rotatable=0;points=[[0,0.5],[1,0.5]];portConstraint=eastwest;" vertex="1" parent="7AIUKhWghx3t-1UBENiu-293">
                    <mxGeometry y="52" width="170" height="26" as="geometry"/>
                </mxCell>
                <mxCell id="7AIUKhWghx3t-1UBENiu-296" value="- modelLength" style="text;strokeColor=none;fillColor=none;align=left;verticalAlign=top;spacingLeft=4;spacingRight=4;overflow=hidden;rotatable=0;points=[[0,0.5],[1,0.5]];portConstraint=eastwest;" vertex="1" parent="7AIUKhWghx3t-1UBENiu-293">
                    <mxGeometry y="78" width="170" height="26" as="geometry"/>
                </mxCell>
                <mxCell id="7AIUKhWghx3t-1UBENiu-297" value="- modelHeight" style="text;strokeColor=none;fillColor=none;align=left;verticalAlign=top;spacingLeft=4;spacingRight=4;overflow=hidden;rotatable=0;points=[[0,0.5],[1,0.5]];portConstraint=eastwest;" vertex="1" parent="7AIUKhWghx3t-1UBENiu-293">
                    <mxGeometry y="104" width="170" height="26" as="geometry"/>
                </mxCell>
                <mxCell id="7AIUKhWghx3t-1UBENiu-298" value="- status" style="text;strokeColor=none;fillColor=none;align=left;verticalAlign=top;spacingLeft=4;spacingRight=4;overflow=hidden;rotatable=0;points=[[0,0.5],[1,0.5]];portConstraint=eastwest;" vertex="1" parent="7AIUKhWghx3t-1UBENiu-293">
                    <mxGeometry y="130" width="170" height="26" as="geometry"/>
                </mxCell>
                <mxCell id="7AIUKhWghx3t-1UBENiu-299" value="" style="line;strokeWidth=1;fillColor=none;align=left;verticalAlign=middle;spacingTop=-1;spacingLeft=3;spacingRight=3;rotatable=0;labelPosition=right;points=[];portConstraint=eastwest;" vertex="1" parent="7AIUKhWghx3t-1UBENiu-293">
                    <mxGeometry y="156" width="170" height="8" as="geometry"/>
                </mxCell>
                <mxCell id="7AIUKhWghx3t-1UBENiu-300" value="PlaceRoadChooser" style="swimlane;fontStyle=1;align=center;verticalAlign=top;childLayout=stackLayout;horizontal=1;startSize=26;horizontalStack=0;resizeParent=1;resizeParentMax=0;resizeLast=0;collapsible=1;marginBottom=0;fontColor=default;fillColor=none;swimlaneFillColor=none;rounded=1;labelBackgroundColor=none;" vertex="1" parent="1">
                    <mxGeometry x="440" y="428" width="170" height="190" as="geometry"/>
                </mxCell>
                <mxCell id="7AIUKhWghx3t-1UBENiu-301" value="- xCell" style="text;strokeColor=none;fillColor=none;align=left;verticalAlign=top;spacingLeft=4;spacingRight=4;overflow=hidden;rotatable=0;points=[[0,0.5],[1,0.5]];portConstraint=eastwest;" vertex="1" parent="7AIUKhWghx3t-1UBENiu-300">
                    <mxGeometry y="26" width="170" height="26" as="geometry"/>
                </mxCell>
                <mxCell id="7AIUKhWghx3t-1UBENiu-302" value="- yCell" style="text;strokeColor=none;fillColor=none;align=left;verticalAlign=top;spacingLeft=4;spacingRight=4;overflow=hidden;rotatable=0;points=[[0,0.5],[1,0.5]];portConstraint=eastwest;" vertex="1" parent="7AIUKhWghx3t-1UBENiu-300">
                    <mxGeometry y="52" width="170" height="26" as="geometry"/>
                </mxCell>
                <mxCell id="7AIUKhWghx3t-1UBENiu-303" value="- modelLength" style="text;strokeColor=none;fillColor=none;align=left;verticalAlign=top;spacingLeft=4;spacingRight=4;overflow=hidden;rotatable=0;points=[[0,0.5],[1,0.5]];portConstraint=eastwest;" vertex="1" parent="7AIUKhWghx3t-1UBENiu-300">
                    <mxGeometry y="78" width="170" height="26" as="geometry"/>
                </mxCell>
                <mxCell id="7AIUKhWghx3t-1UBENiu-304" value="- modelHeight" style="text;strokeColor=none;fillColor=none;align=left;verticalAlign=top;spacingLeft=4;spacingRight=4;overflow=hidden;rotatable=0;points=[[0,0.5],[1,0.5]];portConstraint=eastwest;" vertex="1" parent="7AIUKhWghx3t-1UBENiu-300">
                    <mxGeometry y="104" width="170" height="26" as="geometry"/>
                </mxCell>
                <mxCell id="7AIUKhWghx3t-1UBENiu-305" value="- direction" style="text;strokeColor=none;fillColor=none;align=left;verticalAlign=top;spacingLeft=4;spacingRight=4;overflow=hidden;rotatable=0;points=[[0,0.5],[1,0.5]];portConstraint=eastwest;" vertex="1" parent="7AIUKhWghx3t-1UBENiu-300">
                    <mxGeometry y="130" width="170" height="26" as="geometry"/>
                </mxCell>
                <mxCell id="7AIUKhWghx3t-1UBENiu-306" value="- status" style="text;strokeColor=none;fillColor=none;align=left;verticalAlign=top;spacingLeft=4;spacingRight=4;overflow=hidden;rotatable=0;points=[[0,0.5],[1,0.5]];portConstraint=eastwest;" vertex="1" parent="7AIUKhWghx3t-1UBENiu-300">
                    <mxGeometry y="156" width="170" height="26" as="geometry"/>
                </mxCell>
                <mxCell id="7AIUKhWghx3t-1UBENiu-307" value="" style="line;strokeWidth=1;fillColor=none;align=left;verticalAlign=middle;spacingTop=-1;spacingLeft=3;spacingRight=3;rotatable=0;labelPosition=right;points=[];portConstraint=eastwest;" vertex="1" parent="7AIUKhWghx3t-1UBENiu-300">
                    <mxGeometry y="182" width="170" height="8" as="geometry"/>
                </mxCell>
                <mxCell id="7AIUKhWghx3t-1UBENiu-308" value="PlaceCarChooser" style="swimlane;fontStyle=1;align=center;verticalAlign=top;childLayout=stackLayout;horizontal=1;startSize=26;horizontalStack=0;resizeParent=1;resizeParentMax=0;resizeLast=0;collapsible=1;marginBottom=0;fontColor=default;fillColor=none;swimlaneFillColor=none;rounded=1;labelBackgroundColor=none;" vertex="1" parent="1">
                    <mxGeometry x="440" y="650" width="170" height="190" as="geometry"/>
                </mxCell>
                <mxCell id="7AIUKhWghx3t-1UBENiu-309" value="- xCell" style="text;strokeColor=none;fillColor=none;align=left;verticalAlign=top;spacingLeft=4;spacingRight=4;overflow=hidden;rotatable=0;points=[[0,0.5],[1,0.5]];portConstraint=eastwest;" vertex="1" parent="7AIUKhWghx3t-1UBENiu-308">
                    <mxGeometry y="26" width="170" height="26" as="geometry"/>
                </mxCell>
                <mxCell id="7AIUKhWghx3t-1UBENiu-310" value="- yCell" style="text;strokeColor=none;fillColor=none;align=left;verticalAlign=top;spacingLeft=4;spacingRight=4;overflow=hidden;rotatable=0;points=[[0,0.5],[1,0.5]];portConstraint=eastwest;" vertex="1" parent="7AIUKhWghx3t-1UBENiu-308">
                    <mxGeometry y="52" width="170" height="26" as="geometry"/>
                </mxCell>
                <mxCell id="7AIUKhWghx3t-1UBENiu-311" value="- modelLength" style="text;strokeColor=none;fillColor=none;align=left;verticalAlign=top;spacingLeft=4;spacingRight=4;overflow=hidden;rotatable=0;points=[[0,0.5],[1,0.5]];portConstraint=eastwest;" vertex="1" parent="7AIUKhWghx3t-1UBENiu-308">
                    <mxGeometry y="78" width="170" height="26" as="geometry"/>
                </mxCell>
                <mxCell id="7AIUKhWghx3t-1UBENiu-312" value="- modelHeight" style="text;strokeColor=none;fillColor=none;align=left;verticalAlign=top;spacingLeft=4;spacingRight=4;overflow=hidden;rotatable=0;points=[[0,0.5],[1,0.5]];portConstraint=eastwest;" vertex="1" parent="7AIUKhWghx3t-1UBENiu-308">
                    <mxGeometry y="104" width="170" height="26" as="geometry"/>
                </mxCell>
                <mxCell id="7AIUKhWghx3t-1UBENiu-313" value="- direction" style="text;strokeColor=none;fillColor=none;align=left;verticalAlign=top;spacingLeft=4;spacingRight=4;overflow=hidden;rotatable=0;points=[[0,0.5],[1,0.5]];portConstraint=eastwest;" vertex="1" parent="7AIUKhWghx3t-1UBENiu-308">
                    <mxGeometry y="130" width="170" height="26" as="geometry"/>
                </mxCell>
                <mxCell id="7AIUKhWghx3t-1UBENiu-314" value="- status" style="text;strokeColor=none;fillColor=none;align=left;verticalAlign=top;spacingLeft=4;spacingRight=4;overflow=hidden;rotatable=0;points=[[0,0.5],[1,0.5]];portConstraint=eastwest;" vertex="1" parent="7AIUKhWghx3t-1UBENiu-308">
                    <mxGeometry y="156" width="170" height="26" as="geometry"/>
                </mxCell>
                <mxCell id="7AIUKhWghx3t-1UBENiu-315" value="" style="line;strokeWidth=1;fillColor=none;align=left;verticalAlign=middle;spacingTop=-1;spacingLeft=3;spacingRight=3;rotatable=0;labelPosition=right;points=[];portConstraint=eastwest;" vertex="1" parent="7AIUKhWghx3t-1UBENiu-308">
                    <mxGeometry y="182" width="170" height="8" as="geometry"/>
                </mxCell>
                <mxCell id="7AIUKhWghx3t-1UBENiu-316" value="moveChooser" style="swimlane;fontStyle=1;align=center;verticalAlign=top;childLayout=stackLayout;horizontal=1;startSize=26;horizontalStack=0;resizeParent=1;resizeParentMax=0;resizeLast=0;collapsible=1;marginBottom=0;fontColor=default;fillColor=none;swimlaneFillColor=none;rounded=1;labelBackgroundColor=none;" vertex="1" parent="1">
                    <mxGeometry x="630" y="240" width="180" height="112" as="geometry"/>
                </mxCell>
                <mxCell id="7AIUKhWghx3t-1UBENiu-317" value="- newXCell" style="text;strokeColor=none;fillColor=none;align=left;verticalAlign=top;spacingLeft=4;spacingRight=4;overflow=hidden;rotatable=0;points=[[0,0.5],[1,0.5]];portConstraint=eastwest;" vertex="1" parent="7AIUKhWghx3t-1UBENiu-316">
                    <mxGeometry y="26" width="180" height="26" as="geometry"/>
                </mxCell>
                <mxCell id="7AIUKhWghx3t-1UBENiu-318" value="- newYCell" style="text;strokeColor=none;fillColor=none;align=left;verticalAlign=top;spacingLeft=4;spacingRight=4;overflow=hidden;rotatable=0;points=[[0,0.5],[1,0.5]];portConstraint=eastwest;" vertex="1" parent="7AIUKhWghx3t-1UBENiu-316">
                    <mxGeometry y="52" width="180" height="26" as="geometry"/>
                </mxCell>
                <mxCell id="7AIUKhWghx3t-1UBENiu-319" value="- status" style="text;strokeColor=none;fillColor=none;align=left;verticalAlign=top;spacingLeft=4;spacingRight=4;overflow=hidden;rotatable=0;points=[[0,0.5],[1,0.5]];portConstraint=eastwest;" vertex="1" parent="7AIUKhWghx3t-1UBENiu-316">
                    <mxGeometry y="78" width="180" height="26" as="geometry"/>
                </mxCell>
                <mxCell id="7AIUKhWghx3t-1UBENiu-320" value="" style="line;strokeWidth=1;fillColor=none;align=left;verticalAlign=middle;spacingTop=-1;spacingLeft=3;spacingRight=3;rotatable=0;labelPosition=right;points=[];portConstraint=eastwest;" vertex="1" parent="7AIUKhWghx3t-1UBENiu-316">
                    <mxGeometry y="104" width="180" height="8" as="geometry"/>
                </mxCell>
                <mxCell id="7AIUKhWghx3t-1UBENiu-321" value="IlluminantPlaceChooser" style="swimlane;fontStyle=1;align=center;verticalAlign=top;childLayout=stackLayout;horizontal=1;startSize=26;horizontalStack=0;resizeParent=1;resizeParentMax=0;resizeLast=0;collapsible=1;marginBottom=0;fontColor=default;fillColor=none;swimlaneFillColor=none;rounded=1;labelBackgroundColor=none;" vertex="1" parent="1">
                    <mxGeometry x="630" y="380" width="180" height="112" as="geometry"/>
                </mxCell>
                <mxCell id="7AIUKhWghx3t-1UBENiu-322" value="- xAngle" style="text;strokeColor=none;fillColor=none;align=left;verticalAlign=top;spacingLeft=4;spacingRight=4;overflow=hidden;rotatable=0;points=[[0,0.5],[1,0.5]];portConstraint=eastwest;" vertex="1" parent="7AIUKhWghx3t-1UBENiu-321">
                    <mxGeometry y="26" width="180" height="26" as="geometry"/>
                </mxCell>
                <mxCell id="7AIUKhWghx3t-1UBENiu-323" value="- yAngle" style="text;strokeColor=none;fillColor=none;align=left;verticalAlign=top;spacingLeft=4;spacingRight=4;overflow=hidden;rotatable=0;points=[[0,0.5],[1,0.5]];portConstraint=eastwest;" vertex="1" parent="7AIUKhWghx3t-1UBENiu-321">
                    <mxGeometry y="52" width="180" height="26" as="geometry"/>
                </mxCell>
                <mxCell id="7AIUKhWghx3t-1UBENiu-324" value="- status" style="text;strokeColor=none;fillColor=none;align=left;verticalAlign=top;spacingLeft=4;spacingRight=4;overflow=hidden;rotatable=0;points=[[0,0.5],[1,0.5]];portConstraint=eastwest;" vertex="1" parent="7AIUKhWghx3t-1UBENiu-321">
                    <mxGeometry y="78" width="180" height="26" as="geometry"/>
                </mxCell>
                <mxCell id="7AIUKhWghx3t-1UBENiu-325" value="" style="line;strokeWidth=1;fillColor=none;align=left;verticalAlign=middle;spacingTop=-1;spacingLeft=3;spacingRight=3;rotatable=0;labelPosition=right;points=[];portConstraint=eastwest;" vertex="1" parent="7AIUKhWghx3t-1UBENiu-321">
                    <mxGeometry y="104" width="180" height="8" as="geometry"/>
                </mxCell>
                <mxCell id="7AIUKhWghx3t-1UBENiu-326" value="ObjectChanger" style="swimlane;fontStyle=1;align=center;verticalAlign=top;childLayout=stackLayout;horizontal=1;startSize=26;horizontalStack=0;resizeParent=1;resizeParentMax=0;resizeLast=0;collapsible=1;marginBottom=0;fontColor=default;fillColor=none;swimlaneFillColor=none;rounded=1;labelBackgroundColor=none;" vertex="1" parent="1">
                    <mxGeometry x="630" y="510" width="180" height="138" as="geometry"/>
                </mxCell>
                <mxCell id="7AIUKhWghx3t-1UBENiu-327" value="- ui" style="text;strokeColor=none;fillColor=none;align=left;verticalAlign=top;spacingLeft=4;spacingRight=4;overflow=hidden;rotatable=0;points=[[0,0.5],[1,0.5]];portConstraint=eastwest;" vertex="1" parent="7AIUKhWghx3t-1UBENiu-326">
                    <mxGeometry y="26" width="180" height="26" as="geometry"/>
                </mxCell>
                <mxCell id="7AIUKhWghx3t-1UBENiu-328" value="- facade" style="text;strokeColor=none;fillColor=none;align=left;verticalAlign=top;spacingLeft=4;spacingRight=4;overflow=hidden;rotatable=0;points=[[0,0.5],[1,0.5]];portConstraint=eastwest;" vertex="1" parent="7AIUKhWghx3t-1UBENiu-326">
                    <mxGeometry y="52" width="180" height="26" as="geometry"/>
                </mxCell>
                <mxCell id="7AIUKhWghx3t-1UBENiu-329" value="" style="line;strokeWidth=1;fillColor=none;align=left;verticalAlign=middle;spacingTop=-1;spacingLeft=3;spacingRight=3;rotatable=0;labelPosition=right;points=[];portConstraint=eastwest;" vertex="1" parent="7AIUKhWghx3t-1UBENiu-326">
                    <mxGeometry y="78" width="180" height="8" as="geometry"/>
                </mxCell>
                <mxCell id="7AIUKhWghx3t-1UBENiu-330" value="- changeModel" style="text;strokeColor=none;fillColor=none;align=left;verticalAlign=top;spacingLeft=4;spacingRight=4;overflow=hidden;rotatable=0;points=[[0,0.5],[1,0.5]];portConstraint=eastwest;" vertex="1" parent="7AIUKhWghx3t-1UBENiu-326">
                    <mxGeometry y="86" width="180" height="26" as="geometry"/>
                </mxCell>
                <mxCell id="7AIUKhWghx3t-1UBENiu-331" value="- recalculationModelsNum" style="text;strokeColor=none;fillColor=none;align=left;verticalAlign=top;spacingLeft=4;spacingRight=4;overflow=hidden;rotatable=0;points=[[0,0.5],[1,0.5]];portConstraint=eastwest;" vertex="1" parent="7AIUKhWghx3t-1UBENiu-326">
                    <mxGeometry y="112" width="180" height="26" as="geometry"/>
                </mxCell>
                <mxCell id="7AIUKhWghx3t-1UBENiu-332" value="ObjectHangman" style="swimlane;fontStyle=1;align=center;verticalAlign=top;childLayout=stackLayout;horizontal=1;startSize=26;horizontalStack=0;resizeParent=1;resizeParentMax=0;resizeLast=0;collapsible=1;marginBottom=0;fontColor=default;fillColor=none;swimlaneFillColor=none;rounded=1;labelBackgroundColor=none;" vertex="1" parent="1">
                    <mxGeometry x="630" y="676" width="180" height="112" as="geometry"/>
                </mxCell>
                <mxCell id="7AIUKhWghx3t-1UBENiu-333" value="- ui" style="text;strokeColor=none;fillColor=none;align=left;verticalAlign=top;spacingLeft=4;spacingRight=4;overflow=hidden;rotatable=0;points=[[0,0.5],[1,0.5]];portConstraint=eastwest;" vertex="1" parent="7AIUKhWghx3t-1UBENiu-332">
                    <mxGeometry y="26" width="180" height="26" as="geometry"/>
                </mxCell>
                <mxCell id="7AIUKhWghx3t-1UBENiu-334" value="- scene" style="text;strokeColor=none;fillColor=none;align=left;verticalAlign=top;spacingLeft=4;spacingRight=4;overflow=hidden;rotatable=0;points=[[0,0.5],[1,0.5]];portConstraint=eastwest;" vertex="1" parent="7AIUKhWghx3t-1UBENiu-332">
                    <mxGeometry y="52" width="180" height="26" as="geometry"/>
                </mxCell>
                <mxCell id="7AIUKhWghx3t-1UBENiu-335" value="" style="line;strokeWidth=1;fillColor=none;align=left;verticalAlign=middle;spacingTop=-1;spacingLeft=3;spacingRight=3;rotatable=0;labelPosition=right;points=[];portConstraint=eastwest;" vertex="1" parent="7AIUKhWghx3t-1UBENiu-332">
                    <mxGeometry y="78" width="180" height="8" as="geometry"/>
                </mxCell>
                <mxCell id="7AIUKhWghx3t-1UBENiu-336" value="- recalculationModelsNum" style="text;strokeColor=none;fillColor=none;align=left;verticalAlign=top;spacingLeft=4;spacingRight=4;overflow=hidden;rotatable=0;points=[[0,0.5],[1,0.5]];portConstraint=eastwest;" vertex="1" parent="7AIUKhWghx3t-1UBENiu-332">
                    <mxGeometry y="86" width="180" height="26" as="geometry"/>
                </mxCell>
            </root>
        </mxGraphModel>
    </diagram>
</mxfile>